<svg xmlns="http://www.w3.org/2000/svg" viewBox="0 0 512.011 512.011"><path d="M85.774 196.268a8.53 8.53 0 0 0 8.533 8.533h33.698c1.92 0 3.806-.666 5.308-1.852.41-.324 41.813-32.282 122.692-32.282s122.283 31.957 122.667 32.265a8.543 8.543 0 0 0 5.333 1.869h34.133a8.536 8.536 0 0 0 8.533-8.533v-25.6C426.671 76.562 350.11.001 256.004.001S85.339 76.563 85.339 170.668c0 .896.154 1.758.435 2.569v23.031zm170.232-179.2c84.693 0 153.6 68.907 153.6 153.6v17.067h-22.801c-10.641-7.467-54.059-34.133-130.799-34.133s-120.158 26.667-130.799 34.133h-22.366v-17.067c0-.87-.145-1.715-.418-2.509 1.348-83.541 69.726-151.091 153.583-151.091zm162.133 460.8h-51.2a8.536 8.536 0 0 0-8.533 8.533v17.067c0 4.71 3.823 8.533 8.533 8.533s8.533-3.823 8.533-8.533v-8.533h34.133v8.533c0 4.71 3.823 8.533 8.533 8.533s8.533-3.823 8.533-8.533v-17.067c.001-4.71-3.822-8.533-8.532-8.533zm-179.2-153.6a8.536 8.536 0 0 0-8.533 8.533 8.536 8.536 0 0 0 8.533 8.533h34.133a8.536 8.536 0 0 0 8.533-8.533 8.536 8.536 0 0 0-8.533-8.533h-34.133z"/><path d="M225.388 100.772l9.762 7.091-4.011 11.187a8.54 8.54 0 0 0 2.227 9.131 8.525 8.525 0 0 0 5.803 2.278 8.512 8.512 0 0 0 3.465-.734l13.696-6.067 13.423 6.05a8.55 8.55 0 0 0 9.25-1.468 8.548 8.548 0 0 0 2.33-9.071l-3.772-11.042 9.412-7.629a8.546 8.546 0 0 0 2.68-9.481 8.54 8.54 0 0 0-8.047-5.683h-11.793l-6.178-12.348c-2.884-5.786-12.373-5.786-15.266 0l-6.17 12.348h-11.793a8.535 8.535 0 0 0-5.018 15.438zm29.722-3.089l.896-1.801.896 1.801a8.574 8.574 0 0 0 3.174 3.456 8.544 8.544 0 0 0-.998 5.086 8.52 8.52 0 0 0-5.333-.034 8.544 8.544 0 0 0-.956-5.641 8.79 8.79 0 0 0 2.321-2.867zm35.029 141.252c0 4.71 3.823 8.533 8.533 8.533s8.533-3.823 8.533-8.533h8.533c4.71 0 8.533-3.823 8.533-8.533s-3.823-8.533-8.533-8.533h-34.133c-4.71 0-8.533 3.823-8.533 8.533s3.823 8.533 8.533 8.533h8.534zm221.432 261.837l-8.533-25.6c-10.189-30.532-32.93-65.57-119.031-65.57-4.71 0-8.533 3.823-8.533 8.533s3.823 8.533 8.533 8.533c84.847 0 96.998 36.403 102.835 53.897l8.533 25.6a8.55 8.55 0 0 0 8.098 5.845c.887 0 1.801-.145 2.697-.444 4.47-1.493 6.894-6.323 5.401-10.794z"/><path d="M177.772 336.599c-13.073-19.601-21.922-71.748-24.235-90.189a8.525 8.525 0 0 0-8.465-7.475c-4.702 0-8.533-3.831-8.533-8.533 0-4.71-3.823-8.533-8.533-8.533s-8.533 3.823-8.533 8.533c0 11.469 7.586 21.205 18.005 24.448 2.62 17.937 11.11 68.736 26.095 91.221l1.348 2.039c10.957 16.614 29.286 44.424 91.085 44.424s80.128-27.81 91.085-44.424l1.348-2.039c14.984-22.485 23.475-73.284 26.095-91.221 10.419-3.243 18.005-12.979 18.005-24.448a8.536 8.536 0 0 0-8.533-8.533 8.536 8.536 0 0 0-8.533 8.533c0 4.702-3.831 8.533-8.533 8.533a8.525 8.525 0 0 0-8.465 7.475c-2.304 18.432-11.153 70.571-24.235 90.189l-1.399 2.116c-10.223 15.514-24.226 36.753-76.834 36.753-52.608 0-66.611-21.239-76.834-36.753l-1.401-2.116zm-32.7 81.536a8.536 8.536 0 0 0-8.533-8.533c-91.947 0-119.39 41.079-127.565 65.57l-8.533 25.6c-1.493 4.471.93 9.301 5.402 10.795a8.531 8.531 0 0 0 2.697.444 8.55 8.55 0 0 0 8.098-5.845l8.533-25.6c8.201-24.585 34.185-53.897 111.369-53.897 4.709-.001 8.532-3.824 8.532-8.534z"/><path d="M230.406 221.868h-34.133c-4.71 0-8.533 3.823-8.533 8.533s3.823 8.533 8.533 8.533h8.533a8.536 8.536 0 0 0 8.533 8.533 8.536 8.536 0 0 0 8.533-8.533h8.533c4.71 0 8.533-3.823 8.533-8.533s-3.822-8.533-8.532-8.533zm-85.334 256h-51.2a8.536 8.536 0 0 0-8.533 8.533v17.067a8.536 8.536 0 0 0 8.533 8.533 8.536 8.536 0 0 0 8.533-8.533v-8.533h34.133v8.533c0 4.71 3.823 8.533 8.533 8.533s8.533-3.823 8.533-8.533v-17.067c.002-4.71-3.821-8.533-8.532-8.533zm-102.4-68.266a8.536 8.536 0 0 0 8.533-8.533V315.88c.273-2.236 4.548-8.653 7.1-12.476 5.129-7.689 9.967-14.95 9.967-21.803v-51.2c0-4.71-3.823-8.533-8.533-8.533s-8.533 3.823-8.533 8.533v51.055c-.273 2.236-4.548 8.653-7.1 12.476-5.129 7.689-9.967 14.95-9.967 21.803v85.333c0 4.711 3.823 8.534 8.533 8.534zm315.674 7.5a8.54 8.54 0 0 0-4.659-6.596l-34.133-17.067a8.534 8.534 0 0 0-9.37 1.152l-54.178 46.438-54.178-46.438a8.52 8.52 0 0 0-9.37-1.152l-34.133 17.067a8.541 8.541 0 0 0-4.659 6.596 8.555 8.555 0 0 0 2.918 7.518l59.733 51.191a8.494 8.494 0 0 0 5.547 2.057 8.537 8.537 0 0 0 6.485-2.978c3.072-3.584 2.654-8.969-.922-12.032l-49.98-42.829 17.579-8.798 52.446 44.962v47.275c0 4.71 3.823 8.533 8.533 8.533s8.533-3.823 8.533-8.533v-47.275l52.446-44.962 17.579 8.798-49.98 42.829a8.53 8.53 0 0 0-.922 12.032 8.52 8.52 0 0 0 6.477 2.978 8.494 8.494 0 0 0 5.555-2.057l59.733-51.191a8.551 8.551 0 0 0 2.92-7.518zM68.272 384.001c0 4.71 3.823 8.533 8.533 8.533s8.533-3.823 8.533-8.533v-68.267c0-4.71-3.823-8.533-8.533-8.533s-8.533 3.823-8.533 8.533v68.267z"/></svg>